<svg width="306" height="121" viewBox="0 0 306 121" fill="none" xmlns="http://www.w3.org/2000/svg">
<path d="M86.2952 70.944V60.288H101.943C103.991 60.288 105.847 59.872 107.511 59.04C109.175 58.208 110.487 57.024 111.447 55.488C112.407 53.888 112.887 51.968 112.887 49.728C112.887 47.552 112.407 45.664 111.447 44.064C110.487 42.464 109.175 41.248 107.511 40.416C105.847 39.584 103.991 39.168 101.943 39.168H86.2952V28.512H103.287C107.575 28.512 111.415 29.376 114.807 31.104C118.263 32.832 120.983 35.296 122.967 38.496C124.951 41.632 125.943 45.376 125.943 49.728C125.943 54.08 124.951 57.856 122.967 61.056C120.983 64.192 118.263 66.624 114.807 68.352C111.415 70.08 107.575 70.944 103.287 70.944H86.2952ZM76.6952 96V28.512H89.7512V96H76.6952ZM156.203 96.96C152.107 96.96 148.459 96.096 145.259 94.368C142.123 92.64 139.659 90.24 137.867 87.168C136.075 84.096 135.179 80.544 135.179 76.512V49.632H147.851V76.224C147.851 78.144 148.171 79.808 148.811 81.216C149.451 82.56 150.411 83.584 151.691 84.288C152.971 84.992 154.475 85.344 156.203 85.344C158.827 85.344 160.875 84.544 162.347 82.944C163.819 81.344 164.555 79.104 164.555 76.224V49.632H177.131V76.512C177.131 80.608 176.235 84.192 174.443 87.264C172.715 90.336 170.251 92.736 167.051 94.464C163.915 96.128 160.299 96.96 156.203 96.96ZM189.066 96V26.592H201.642V96H189.066ZM230.641 97.056C228.017 97.056 225.425 96.704 222.865 96C220.369 95.296 218.065 94.336 215.953 93.12C213.841 91.84 212.017 90.304 210.481 88.512L217.969 80.928C219.569 82.72 221.425 84.064 223.537 84.96C225.649 85.856 227.985 86.304 230.545 86.304C232.593 86.304 234.129 86.016 235.153 85.44C236.241 84.864 236.785 84 236.785 82.848C236.785 81.568 236.209 80.576 235.057 79.872C233.969 79.168 232.529 78.592 230.737 78.144C228.945 77.632 227.057 77.088 225.073 76.512C223.153 75.872 221.297 75.072 219.505 74.112C217.713 73.088 216.241 71.712 215.089 69.984C214.001 68.192 213.457 65.888 213.457 63.072C213.457 60.128 214.161 57.568 215.569 55.392C217.041 53.216 219.121 51.52 221.809 50.304C224.497 49.088 227.665 48.48 231.313 48.48C235.153 48.48 238.609 49.152 241.681 50.496C244.817 51.84 247.409 53.856 249.457 56.544L241.873 64.128C240.465 62.4 238.865 61.152 237.073 60.384C235.345 59.616 233.457 59.232 231.409 59.232C229.553 59.232 228.113 59.52 227.089 60.096C226.129 60.672 225.649 61.472 225.649 62.496C225.649 63.648 226.193 64.544 227.281 65.184C228.433 65.824 229.905 66.4 231.697 66.912C233.489 67.36 235.345 67.904 237.265 68.544C239.249 69.12 241.105 69.952 242.833 71.04C244.625 72.128 246.065 73.568 247.153 75.36C248.305 77.152 248.881 79.456 248.881 82.272C248.881 86.816 247.249 90.432 243.985 93.12C240.721 95.744 236.273 97.056 230.641 97.056ZM281.457 96.96C276.593 96.96 272.273 95.936 268.497 93.888C264.721 91.776 261.713 88.896 259.473 85.248C257.297 81.6 256.209 77.44 256.209 72.768C256.209 68.16 257.265 64.064 259.377 60.48C261.553 56.832 264.497 53.952 268.209 51.84C271.921 49.664 276.049 48.576 280.593 48.576C285.073 48.576 289.009 49.6 292.401 51.648C295.857 53.632 298.545 56.384 300.465 59.904C302.449 63.36 303.441 67.296 303.441 71.712C303.441 72.544 303.377 73.408 303.249 74.304C303.185 75.136 303.025 76.096 302.769 77.184L263.793 77.28V67.872L296.913 67.776L291.825 71.712C291.697 68.96 291.185 66.656 290.289 64.8C289.457 62.944 288.209 61.536 286.545 60.576C284.945 59.552 282.961 59.04 280.593 59.04C278.097 59.04 275.921 59.616 274.065 60.768C272.209 61.856 270.769 63.424 269.745 65.472C268.785 67.456 268.305 69.824 268.305 72.576C268.305 75.392 268.817 77.856 269.841 79.968C270.929 82.016 272.465 83.616 274.449 84.768C276.433 85.856 278.737 86.4 281.361 86.4C283.729 86.4 285.873 86.016 287.793 85.248C289.713 84.416 291.377 83.2 292.785 81.6L300.177 88.992C297.937 91.616 295.185 93.6 291.921 94.944C288.721 96.288 285.233 96.96 281.457 96.96Z" fill="url(#paint0_linear_1713_44)"/>
<path d="M0 78.12L13.3885 86.0158V54.8903L26.6626 46.9945L40.28 54.8903V70.2242L26.6626 78.12V93.3395L53.783 78.12V46.9945L26.6626 31.6606L0 46.9945V78.12Z" fill="url(#paint1_linear_1713_44)"/>
<defs>
<linearGradient id="paint0_linear_1713_44" x1="187.822" y1="1.6975" x2="187.822" y2="124.425" gradientUnits="userSpaceOnUse">
<stop stop-color="#3E9EA7"/>
<stop offset="1" stop-color="#2C5268"/>
</linearGradient>
<linearGradient id="paint1_linear_1713_44" x1="26.9003" y1="32.5259" x2="26.9003" y2="95.0854" gradientUnits="userSpaceOnUse">
<stop stop-color="#3E9EA7"/>
<stop offset="1" stop-color="#2C5268"/>
</linearGradient>
</defs>
</svg>
